PathFileType	4	(X/Y/Z)	c:\Git\1_current_projects\powerlifing_model\simulations\Athlete_03\22_07_06\dl_70_test\markers_experimental.trc
DataRate	CameraRate	NumFrames	NumMarkers	Units	OrigDataRate	OrigDataStartFrame	OrigNumFrames
200.000000	200.000000	4	59	mm	200.000000	0	2810
Frame#	Time	BL			BR			GLAB			RFHD			LFHD			C7			T6			SPINMOL			SPINM2			SPINM3			BELTOL			BELT2			BELT3			SACROL			SACR2			SACR3			LTHOL			LTH2			LTH3			LSHAOL			LSHA2			LSHA3			LHEE			LTOE			LM5			RTHOL			RTH2			RTH3			RSHAOL			RSHA2			RSHA3			RHEE			RTOE			RM5			STRN			XIPH			LACR			LUAOL			LUA2			LUA3			LLAOL			LLA2			LLA3			LWRU			RACR			RUAOL			RUA2			RUA3			RLAOL			RLA2			RLA3			RWRU			T12			USERMO0			USERMO1			USERMO2			USERMO3			USERMO4			USERMO5			
		X1	Y1	Z1	X2	Y2	Z2	X3	Y3	Z3	X4	Y4	Z4	X5	Y5	Z5	X6	Y6	Z6	X7	Y7	Z7	X8	Y8	Z8	X9	Y9	Z9	X10	Y10	Z10	X11	Y11	Z11	X12	Y12	Z12	X13	Y13	Z13	X14	Y14	Z14	X15	Y15	Z15	X16	Y16	Z16	X17	Y17	Z17	X18	Y18	Z18	X19	Y19	Z19	X20	Y20	Z20	X21	Y21	Z21	X22	Y22	Z22	X23	Y23	Z23	X24	Y24	Z24	X25	Y25	Z25	X26	Y26	Z26	X27	Y27	Z27	X28	Y28	Z28	X29	Y29	Z29	X30	Y30	Z30	X31	Y31	Z31	X32	Y32	Z32	X33	Y33	Z33	X34	Y34	Z34	X35	Y35	Z35	X36	Y36	Z36	X37	Y37	Z37	X38	Y38	Z38	X39	Y39	Z39	X40	Y40	Z40	X41	Y41	Z41	X42	Y42	Z42	X43	Y43	Z43	X44	Y44	Z44	X45	Y45	Z45	X46	Y46	Z46	X47	Y47	Z47	X48	Y48	Z48	X49	Y49	Z49	X50	Y50	Z50	X51	Y51	Z51	X52	Y52	Z52	X53	Y53	Z53	X54	Y54	Z54	X55	Y55	Z55	X56	Y56	Z56	X57	Y57	Z57	X58	Y58	Z58	X59	Y59	Z59	

1	0	161.1316375732422	248.4389190673829	-2316.79443359375	200.6757507324219	251.5852203369141	-93.73363494873048	432.0815429687501	1426.655395507813	-1166.9306640625	390.2979125976564	1488.807739257813	-1104.0634765625	414.5855102539064	1472.3232421875	-1253.818603515625	180.8442840576172	1478.628784179688	-1199.784790039063	43.36493682861329	1293.224243164063	-1203.374755859375	30.15917015075684	1262.848266601563	-1205.780517578125	12.11937618255616	1203.833374023438	-1154.803955078125	17.743408203125	1202.102661132813	-1204.228271484375	-10.50630283355713	1141.218505859375	-1202.240844726563	-19.09304809570313	1082.594604492188	-1148.706298828125	-28.63868141174317	1081.859375	-1197.893310546875	-34.05538558959962	1008.339050292969	-1224.5126953125	-24.93299674987794	1018.65966796875	-1175.00048828125	-55.12348937988283	960.5814208984377	-1183.696044921875	105.1015243530274	759.7454833984376	-1427.140502929688	64.99715423583986	692.8400878906251	-1409.40185546875	113.2031860351563	698.5180664062501	-1423.0029296875	92.18283081054689	349.6553649902344	-1427.146728515625	52.73221969604494	281.6628112792969	-1420.676635742188	101.7496032714844	288.4508056640626	-1425.495849609375	28.42534446716309	65.09893798828126	-1349.09716796875	237.6184082031251	73.59278869628908	-1353.319946289063	195.1924133300782	56.87561035156251	-1458.938720703125	106.678466796875	732.3024291992189	-989.4578247070315	151.8172302246094	667.4437866210939	-977.5614013671877	103.8724822998047	670.0403442382814	-992.2252197265627	73.82558441162111	345.1424560546876	-975.3015136718752	115.2340621948242	277.5960693359376	-970.287292480469	66.83825683593751	284.3172302246094	-981.555358886719	26.92741775512696	63.53033828735353	-1060.187255859375	236.4354705810547	68.63110351562501	-1036.395141601563	189.174072265625	67.62850189208986	-939.687438964844	280.3034362792969	1340.390991210938	-1209.930541992188	269.7173461914063	1188.263305664063	-1213.698852539063	205.6732940673829	1386.939453125	-1418.99609375	194.1977233886719	1241.968627929688	-1494.054809570313	165.1653594970703	1184.760009765625	-1512.451416015625	215.2443389892579	1179.3583984375	-1500.609375	250.1291046142579	969.8319091796877	-1525.08203125	250.8010253906251	904.0774536132815	-1524.08935546875	291.5337524414063	925.283386230469	-1504.159423828125	301.6581420898438	825.2600097656252	-1503.585693359375	222.9940338134766	1373.11572265625	-1001.240539550781	227.3707275390626	1203.115600585938	-937.178405761719	254.2346496582032	1144.081176757813	-950.1941528320315	223.4958038330079	1142.062866210938	-910.002868652344	274.0060119628907	960.5435180664065	-894.102722167969	310.4839782714844	914.517761230469	-922.7647705078127	282.9500122070313	896.9885864257815	-883.9028930664065	297.8636169433594	821.7114257812502	-888.932556152344	22.53307723999024	1149.025634765625	-1203.802856445313	0.01173679996281863	0.1822980046272278	-0.0180354006588459	0.006559560075402262	0.00696782022714615	-0.009437910281121733	0.007899769581854345	0.00744306016713381	-0.01274009980261326	0.007563129998743536	0.1929479986429215	-0.8407739996910097	0.3251439929008484	2.586390018463135	-0.3478919863700867	2.857779979705811	0	0	
2	0.005	161.1298370361328	248.4328918457032	-2316.78662109375	200.6756439208985	251.5849304199219	-93.73310852050783	433.377166748047	1424.912963867188	-1166.809326171875	391.8098449707032	1487.259521484375	-1103.98974609375	416.113250732422	1470.611328125	-1253.72314453125	182.353271484375	1478.041137695313	-1199.818359375	43.87277603149415	1293.396362304688	-1203.447143554688	30.48496627807618	1263.081298828125	-1205.844116210938	12.19517517089844	1204.14892578125	-1154.863403320313	17.82742500305176	1202.382934570313	-1204.2919921875	-10.7649097442627	1141.532958984375	-1202.312622070313	-19.623291015625	1082.954467773438	-1148.775390625	-29.1463794708252	1082.253173828125	-1197.963989257813	-34.85710144042969	1008.580261230469	-1224.571655273438	-25.7605209350586	1018.880187988281	-1175.08154296875	-56.0089683532715	960.8485107421877	-1183.7783203125	104.3748626708985	759.6990966796876	-1427.266479492188	64.32458496093751	692.7388916015626	-1409.601318359375	112.5401611328125	698.4806518554689	-1423.150024414063	91.8823699951172	349.6337280273438	-1427.222778320313	52.501766204834	281.6032714843751	-1420.739624023438	101.5096054077149	288.4405822753907	-1425.557495117188	28.40843009948731	65.07554626464845	-1349.115844726563	237.6085968017579	73.60684967041017	-1353.3349609375	195.1875457763672	56.86415100097658	-1458.951171875	105.9863357543946	732.2299804687501	-989.3227539062502	151.3183746337891	667.4910888671876	-977.4790649414065	103.3383255004883	669.9562988281251	-992.0489501953127	73.71378326416017	345.1005249023438	-975.1922607421877	115.1524658203125	277.5677185058594	-970.2161865234377	66.74752807617189	284.2752380371094	-981.466247558594	26.91544723510743	63.51986694335939	-1060.172973632813	236.4220581054688	68.62967681884767	-1036.38037109375	189.1717224121094	67.62611389160158	-939.678649902344	281.1314392089844	1339.313354492188	-1209.943237304688	269.8485412597657	1187.27734375	-1213.701782226563	206.9489898681641	1386.2578125	-1418.98681640625	194.9622344970704	1241.47705078125	-1494.165283203125	165.7269439697266	1184.39892578125	-1512.629272460938	215.7803955078126	1178.805297851563	-1500.76904296875	250.106918334961	969.229187011719	-1525.319091796875	250.6770935058594	903.473815917969	-1524.321044921875	291.4264526367188	924.6208496093752	-1504.366455078125	301.3965759277344	824.5828857421877	-1503.774291992188	224.1319427490235	1372.319702148438	-1001.331359863281	227.9624633789063	1202.442016601563	-937.1697998046877	254.6335906982422	1143.306396484375	-950.1492309570315	223.9261474609376	1141.434692382813	-909.9014892578127	273.9487609863282	959.8433837890627	-893.8322753906252	310.2855224609376	913.6975708007815	-922.4863281250002	282.7626037597657	896.2737426757815	-883.5750122070315	297.4970397949219	820.9670410156252	-888.5379638671877	22.39465522766114	1149.245239257813	-1203.764892578125	0.01170300040394068	0.1806820034980774	-0.01848690025508404	0.006386079825460913	0.007045410107821228	-0.009658699855208399	0.007714020088315012	0.007390019949525596	-0.01262379996478558	0.007539640180766584	0.1932699978351594	-0.8371610045433047	0.3259930014610291	2.602489948272706	-0.3469339907169343	2.857899904251099	0	0	
3	0.01	161.1273345947266	248.4259033203126	-2316.776611328125	200.6755065917969	251.5846710205079	-93.73252105712892	434.8632202148439	1422.8984375	-1166.673217773438	393.5450134277345	1485.465087890625	-1103.906372070313	417.8625793457032	1468.631469726563	-1253.616333007813	184.0892791748047	1477.348388671875	-1199.854736328125	44.46465301513673	1293.583129882813	-1203.529541015625	30.87209129333497	1263.337646484375	-1205.916381835938	12.29072761535645	1204.50341796875	-1154.930419921875	17.92911911010743	1202.697387695313	-1204.364013671875	-11.05849361419678	1141.890258789063	-1202.394409179688	-20.22913932800293	1083.365112304688	-1148.8544921875	-29.72615814208985	1082.702880859375	-1198.045043945313	-35.77642440795899	1008.857543945313	-1224.637817382813	-26.70708084106446	1019.13134765625	-1175.171508789063	-57.02359008789064	961.1543579101565	-1183.871215820313	103.5425720214844	759.6445312500001	-1427.411010742188	63.55398559570314	692.6210937500001	-1409.831176757813	111.780502319336	698.4362182617189	-1423.3193359375	91.53672027587892	349.6090393066407	-1427.309204101563	52.23684692382814	281.5347900390626	-1420.811157226563	101.2337417602539	288.4289245605469	-1425.6279296875	28.38905143737794	65.04876708984376	-1349.137084960938	237.5977783203126	73.62300109863283	-1353.3515625	195.1819305419922	56.85135650634767	-1458.964965820313	105.193229675293	732.1465454101564	-989.1661376953127	150.7444000244141	667.5435791015626	-977.386901855469	102.7234344482422	669.8598022460939	-991.8462524414065	73.58123779296876	345.0526428222657	-975.0675048828127	115.056022644043	277.5365295410157	-970.1359863281252	66.64064788818361	284.2274169921876	-981.3642578125002	26.90141487121583	63.50770187377931	-1060.156860351563	236.4066314697266	68.62771606445314	-1036.363647460938	189.1690673828125	67.62363433837892	-939.6691894531252	282.0816650390626	1338.062744140625	-1209.955444335938	269.9936523437501	1186.13525390625	-1213.69970703125	208.4200439453126	1385.455810546875	-1418.974243164063	195.8461608886719	1240.893920898438	-1494.285522460938	166.3798065185547	1183.966918945313	-1512.83056640625	216.4017791748047	1178.152221679688	-1500.948608398438	250.0858612060547	968.520690917969	-1525.590087890625	250.5349578857422	902.7647705078127	-1524.58642578125	291.3048706054688	923.8414306640627	-1504.603393554688	301.0930480957032	823.7866821289065	-1503.99169921875	225.4418182373047	1371.387939453125	-1001.433715820313	228.6463165283204	1201.651977539063	-937.159606933594	255.0906372070313	1142.400146484375	-950.1010742187502	224.4247436523438	1140.6962890625	-909.7886352539065	273.8860168457032	959.0220336914065	-893.5247802734377	310.0590820312501	912.738708496094	-922.1687622070315	282.5482177734376	895.4355468750002	-883.2017822265627	297.0746459960938	820.0953369140627	-888.0859985351565	22.22016334533692	1149.487915039063	-1203.739868164063	0.0117579996585846	0.1786600053310395	-0.01863650046288967	0.006233050022274257	0.007162109948694708	-0.009905610233545305	0.007522659841924908	0.007347499951720239	-0.01242659986019135	0.007516030222177507	0.1931660026311875	-0.8331590294837954	0.3276360034942628	2.620349884033204	-0.3460739850997925	2.858030080795289	0	0	
4	0.015	161.1240844726563	248.4179687500001	-2316.764404296875	200.6753234863282	251.584457397461	-93.73191070556642	436.527069091797	1420.623901367188	-1166.524536132813	395.488983154297	1483.433837890625	-1103.814453125	419.8176574707032	1466.395385742188	-1253.499633789063	186.0391387939453	1476.550903320313	-1199.892700195313	45.13803100585938	1293.77978515625	-1203.62060546875	31.32061004638673	1263.612182617188	-1205.996337890625	12.40768623352051	1204.891479492188	-1155.004150390625	18.04911041259766	1203.041259765625	-1204.442993164063	-11.38364982604981	1142.286376953125	-1202.485229492188	-20.90468978881836	1083.822143554688	-1148.942749023438	-30.37232398986817	1083.203857421875	-1198.1357421875	-36.80546951293946	1009.168579101563	-1224.710205078125	-27.76371765136719	1019.410583496094	-1175.268676757813	-58.15834045410158	961.4960937500002	-1183.973266601563	102.6119079589844	759.5819702148439	-1427.572998046875	62.6920623779297	692.4872436523439	-1410.089477539063	110.930778503418	698.3846435546876	-1423.509399414063	91.14863586425783	349.5814819335938	-1427.405151367188	51.93958663940431	281.4579467773438	-1420.89013671875	100.9242324829102	288.4159545898438	-1425.706420898438	28.36742210388184	65.01885223388673	-1349.160522460938	237.5863037109376	73.64110565185548	-1353.369384765625	195.1755828857422	56.837459564209	-1458.979858398438	104.3059844970703	732.0527343750001	-988.9888305664065	150.0994873046875	667.6001586914064	-977.2862548828127	102.0323562622071	669.7517089843751	-991.6190185546877	73.42781066894533	344.9992065429688	-974.9285278320315	114.9447250366211	277.5030822753907	-970.0479125976565	66.51769256591798	284.1742248535157	-981.2505493164065	26.88538932800294	63.49386215209962	-1060.139038085938	236.3894042968751	68.62524414062501	-1036.345581054688	189.1661224365235	67.62117767333986	-939.6592407226565	283.1461181640626	1336.645141601563	-1209.966430664063	270.1506347656251	1184.844482421875	-1213.6904296875	210.0760803222657	1384.534301757813	-1418.957641601563	196.8441772460938	1240.218627929688	-1494.413330078125	167.1210632324219	1183.462036132813	-1513.052368164063	217.1051788330079	1177.399291992188	-1501.1455078125	250.0673522949219	967.707214355469	-1525.892211914063	250.3759155273438	901.9511718750002	-1524.883178710938	291.1705017089844	922.9458007812502	-1504.868041992188	300.7491455078126	822.872253417969	-1504.236083984375	226.9136962890626	1370.322631835938	-1001.546142578125	229.4178161621094	1200.7470703125	-937.1477050781252	255.6021728515626	1141.364868164063	-950.0506591796877	224.9886016845704	1139.848388671875	-909.6658935546877	273.8192138671876	958.080993652344	-893.1837158203127	309.8066101074219	911.6438598632815	-921.8155517578127	282.3087463378907	894.4757080078127	-882.787292480469	296.5995178222657	819.098327636719	-887.580993652344	22.00825119018555	1149.749389648438	-1203.731323242188	0.01189580000936985	0.1763350069522858	-0.01845219917595387	0.006102640181779863	0.007321829907596113	-0.0101757999509573	0.00733467983081937	0.007315049879252912	-0.01216759998351336	0.007487299852073194	0.1927320063114167	-0.8290399909019472	0.3300859928131104	2.639029979705811	-0.3453640043735505	2.858150005340577	0	0	
